<svg width="220" height="49" viewBox="0 0 220 49" fill="none" xmlns="http://www.w3.org/2000/svg">
<path d="M40.8593 15.28C40.8593 18 39.8993 20.352 37.9793 22.336C36.0593 24.288 33.2593 25.696 29.5793 26.56C31.5633 27.104 33.0673 28 34.0913 29.248C35.1153 30.464 35.6273 31.872 35.6273 33.472C35.6273 36 34.8273 38.192 33.2273 40.048C31.6593 41.904 29.3553 43.344 26.3153 44.368C23.2753 45.36 19.6113 45.856 15.3233 45.856C13.7233 45.856 12.4433 45.808 11.4833 45.712C11.4513 46.608 11.0673 47.28 10.3313 47.728C9.59531 48.176 8.65131 48.4 7.49931 48.4C6.34731 48.4 5.54731 48.144 5.09931 47.632C4.68331 47.12 4.50731 46.368 4.57131 45.376C4.85931 40.896 5.41931 36.208 6.25131 31.312C7.08331 26.384 8.13931 21.632 9.41931 17.056C9.64331 16.256 10.0913 15.696 10.7633 15.376C11.4353 15.056 12.3153 14.896 13.4033 14.896C15.3553 14.896 16.3313 15.44 16.3313 16.528C16.3313 16.976 16.2353 17.488 16.0433 18.064C15.2113 20.56 14.3793 23.952 13.5473 28.24C12.7153 32.496 12.1233 36.56 11.7713 40.432C13.3073 40.56 14.5553 40.624 15.5153 40.624C19.9953 40.624 23.2753 39.984 25.3553 38.704C27.4673 37.392 28.5233 35.728 28.5233 33.712C28.5233 32.304 27.9153 31.12 26.6993 30.16C25.5153 29.2 23.5153 28.672 20.6993 28.576C20.0593 28.544 19.6113 28.384 19.3553 28.096C19.0993 27.808 18.9713 27.344 18.9713 26.704C18.9713 25.776 19.1633 25.024 19.5473 24.448C19.9313 23.872 20.6353 23.568 21.6593 23.536C23.9313 23.472 25.9793 23.136 27.8033 22.528C29.6593 21.92 31.1153 21.072 32.1713 19.984C33.2273 18.864 33.7553 17.568 33.7553 16.096C33.7553 14.24 32.8433 12.784 31.0193 11.728C29.1953 10.64 26.3953 10.096 22.6193 10.096C19.1953 10.096 15.8833 10.544 12.6833 11.44C9.48331 12.304 6.76331 13.408 4.52331 14.752C3.49931 15.36 2.63531 15.664 1.93131 15.664C1.35531 15.664 0.907313 15.472 0.587313 15.088C0.299313 14.672 0.155313 14.16 0.155313 13.552C0.155313 12.752 0.315313 12.064 0.635313 11.488C0.987313 10.912 1.80331 10.256 3.08331 9.52C5.77131 7.984 8.92331 6.784 12.5393 5.92C16.1553 5.056 19.8513 4.624 23.6273 4.624C29.4193 4.624 33.7393 5.6 36.5873 7.552C39.4353 9.504 40.8593 12.08 40.8593 15.28ZM59.3944 35.296C59.8104 35.296 60.1304 35.488 60.3544 35.872C60.6104 36.256 60.7384 36.784 60.7384 37.456C60.7384 38.736 60.4344 39.728 59.8264 40.432C58.4504 42.128 56.9464 43.52 55.3144 44.608C53.7144 45.696 51.8904 46.24 49.8424 46.24C47.0264 46.24 44.9304 44.96 43.5544 42.4C42.2104 39.84 41.5384 36.528 41.5384 32.464C41.5384 28.56 42.0344 24.112 43.0264 19.12C44.0504 14.128 45.5384 9.84 47.4904 6.256C49.4744 2.672 51.8264 0.879997 54.5464 0.879997C56.0824 0.879997 57.2824 1.6 58.1464 3.04C59.0424 4.448 59.4904 6.48 59.4904 9.136C59.4904 12.944 58.4344 17.36 56.3224 22.384C54.2104 27.408 51.3464 32.384 47.7304 37.312C47.9544 38.624 48.3224 39.568 48.8344 40.144C49.3464 40.688 50.0184 40.96 50.8504 40.96C52.1624 40.96 53.3144 40.592 54.3064 39.856C55.2984 39.088 56.5624 37.792 58.0984 35.968C58.4824 35.52 58.9144 35.296 59.3944 35.296ZM53.4904 5.632C52.7544 5.632 51.9224 6.96 50.9944 9.616C50.0664 12.272 49.2504 15.568 48.5464 19.504C47.8424 23.44 47.4584 27.216 47.3944 30.832C49.6664 27.088 51.4744 23.344 52.8184 19.6C54.1624 15.824 54.8344 12.384 54.8344 9.28C54.8344 6.848 54.3864 5.632 53.4904 5.632ZM81.3387 31.264C81.7547 31.264 82.0747 31.472 82.2987 31.888C82.5227 32.304 82.6347 32.832 82.6347 33.472C82.6347 35.008 82.1707 35.92 81.2427 36.208C79.3227 36.88 77.2107 37.264 74.9067 37.36C74.2987 40.048 73.0987 42.208 71.3067 43.84C69.5147 45.44 67.4827 46.24 65.2107 46.24C63.2907 46.24 61.6427 45.776 60.2667 44.848C58.9227 43.92 57.8987 42.688 57.1947 41.152C56.4907 39.616 56.1387 37.952 56.1387 36.16C56.1387 33.728 56.6027 31.568 57.5307 29.68C58.4587 27.76 59.7387 26.272 61.3707 25.216C63.0027 24.128 64.8107 23.584 66.7947 23.584C69.2267 23.584 71.1787 24.432 72.6507 26.128C74.1547 27.792 75.0347 29.856 75.2907 32.32C76.7947 32.224 78.5867 31.904 80.6667 31.36C80.9227 31.296 81.1467 31.264 81.3387 31.264ZM65.5947 41.152C66.6187 41.152 67.4987 40.736 68.2347 39.904C69.0027 39.072 69.5147 37.872 69.7707 36.304C68.7787 35.632 68.0107 34.752 67.4667 33.664C66.9547 32.576 66.6987 31.424 66.6987 30.208C66.6987 29.696 66.7467 29.184 66.8427 28.672H66.6027C65.3227 28.672 64.2507 29.296 63.3867 30.544C62.5547 31.76 62.1387 33.488 62.1387 35.728C62.1387 37.488 62.4747 38.832 63.1467 39.76C63.8507 40.688 64.6667 41.152 65.5947 41.152ZM87.6829 46.24C84.5469 46.24 82.0989 45.36 80.3389 43.6C78.6109 41.808 77.7469 39.456 77.7469 36.544C77.7469 33.952 78.2589 31.68 79.2829 29.728C80.3069 27.776 81.6349 26.272 83.2669 25.216C84.8989 24.16 86.6109 23.632 88.4029 23.632C90.1629 23.632 91.5229 24.16 92.4829 25.216C93.4749 26.24 93.9709 27.568 93.9709 29.2C93.9709 30.544 93.6669 31.68 93.0589 32.608C92.4829 33.536 91.7149 34 90.7549 34C90.1469 34 89.6509 33.856 89.2669 33.568C88.9149 33.28 88.7389 32.88 88.7389 32.368C88.7389 32.144 88.7709 31.888 88.8349 31.6C88.8989 31.312 88.9469 31.104 88.9789 30.976C89.1389 30.496 89.2189 30.048 89.2189 29.632C89.2189 29.216 89.1069 28.896 88.8829 28.672C88.6909 28.448 88.4029 28.336 88.0189 28.336C87.2829 28.336 86.5949 28.672 85.9549 29.344C85.3149 29.984 84.8029 30.864 84.4189 31.984C84.0349 33.104 83.8429 34.336 83.8429 35.68C83.8429 39.392 85.4589 41.248 88.6909 41.248C90.0029 41.248 91.4109 40.816 92.9149 39.952C94.4509 39.056 95.9549 37.728 97.4269 35.968C97.8109 35.52 98.2429 35.296 98.7229 35.296C99.1389 35.296 99.4589 35.488 99.6829 35.872C99.9389 36.256 100.067 36.784 100.067 37.456C100.067 38.672 99.7629 39.664 99.1549 40.432C97.6509 42.288 95.8429 43.728 93.7309 44.752C91.6509 45.744 89.6349 46.24 87.6829 46.24ZM123.931 35.296C124.347 35.296 124.667 35.488 124.891 35.872C125.147 36.256 125.275 36.784 125.275 37.456C125.275 38.736 124.971 39.728 124.363 40.432C122.923 42.192 121.467 43.6 119.995 44.656C118.523 45.712 116.779 46.24 114.763 46.24C112.299 46.24 110.315 45.536 108.811 44.128C107.307 42.72 106.555 40.848 106.555 38.512C106.555 37.264 107.195 36.368 108.475 35.824C109.883 35.216 110.891 34.576 111.499 33.904C112.107 33.2 112.411 32.352 112.411 31.36C112.411 30.784 112.283 30.352 112.027 30.064C111.803 29.776 111.515 29.632 111.163 29.632C110.299 29.632 109.339 30.256 108.283 31.504C107.259 32.752 106.299 34.368 105.403 36.352C104.507 38.304 103.803 40.32 103.291 42.4C102.939 43.904 102.523 44.928 102.043 45.472C101.595 45.984 100.875 46.24 99.8828 46.24C98.8908 46.24 98.1548 45.888 97.6748 45.184C97.2268 44.448 96.9228 43.328 96.7628 41.824C96.6028 40.32 96.5228 38.112 96.5228 35.2C96.5228 30.272 97.0188 25.136 98.0108 19.792C99.0348 14.448 100.523 9.968 102.475 6.352C104.459 2.704 106.827 0.879997 109.579 0.879997C111.051 0.879997 112.235 1.52 113.131 2.8C114.059 4.048 114.523 5.68 114.523 7.696C114.523 10.928 113.579 14.288 111.691 17.776C109.803 21.232 106.731 25.28 102.475 29.92C102.379 31.584 102.331 33.296 102.331 35.056C103.867 31.056 105.627 28.16 107.611 26.368C109.595 24.544 111.451 23.632 113.179 23.632C114.779 23.632 116.059 24.176 117.019 25.264C118.011 26.352 118.507 27.696 118.507 29.296C118.507 31.056 118.059 32.672 117.163 34.144C116.267 35.616 114.731 36.928 112.555 38.08C112.683 38.944 113.067 39.648 113.707 40.192C114.379 40.704 115.179 40.96 116.107 40.96C117.099 40.96 118.059 40.576 118.987 39.808C119.915 39.04 121.131 37.76 122.635 35.968C123.019 35.52 123.451 35.296 123.931 35.296ZM108.571 5.632C107.995 5.632 107.355 6.464 106.651 8.128C105.947 9.76 105.259 11.984 104.587 14.8C103.947 17.584 103.419 20.624 103.003 23.92C104.987 21.584 106.619 19.04 107.899 16.288C109.211 13.536 109.867 11.04 109.867 8.8C109.867 7.776 109.755 6.992 109.531 6.448C109.307 5.904 108.987 5.632 108.571 5.632ZM160.766 15.28C160.766 18 159.806 20.352 157.886 22.336C155.966 24.288 153.166 25.696 149.486 26.56C151.47 27.104 152.974 28 153.998 29.248C155.022 30.464 155.534 31.872 155.534 33.472C155.534 36 154.734 38.192 153.134 40.048C151.566 41.904 149.262 43.344 146.222 44.368C143.182 45.36 139.518 45.856 135.23 45.856C133.63 45.856 132.35 45.808 131.39 45.712C131.358 46.608 130.974 47.28 130.238 47.728C129.502 48.176 128.558 48.4 127.406 48.4C126.254 48.4 125.454 48.144 125.006 47.632C124.59 47.12 124.414 46.368 124.478 45.376C124.766 40.896 125.326 36.208 126.158 31.312C126.99 26.384 128.046 21.632 129.326 17.056C129.55 16.256 129.998 15.696 130.67 15.376C131.342 15.056 132.222 14.896 133.31 14.896C135.262 14.896 136.238 15.44 136.238 16.528C136.238 16.976 136.142 17.488 135.95 18.064C135.118 20.56 134.286 23.952 133.454 28.24C132.622 32.496 132.03 36.56 131.678 40.432C133.214 40.56 134.462 40.624 135.422 40.624C139.902 40.624 143.182 39.984 145.262 38.704C147.374 37.392 148.43 35.728 148.43 33.712C148.43 32.304 147.822 31.12 146.606 30.16C145.422 29.2 143.422 28.672 140.606 28.576C139.966 28.544 139.518 28.384 139.262 28.096C139.006 27.808 138.878 27.344 138.878 26.704C138.878 25.776 139.07 25.024 139.454 24.448C139.838 23.872 140.542 23.568 141.566 23.536C143.838 23.472 145.886 23.136 147.71 22.528C149.566 21.92 151.022 21.072 152.078 19.984C153.134 18.864 153.662 17.568 153.662 16.096C153.662 14.24 152.75 12.784 150.926 11.728C149.102 10.64 146.302 10.096 142.526 10.096C139.102 10.096 135.79 10.544 132.59 11.44C129.39 12.304 126.67 13.408 124.43 14.752C123.406 15.36 122.542 15.664 121.838 15.664C121.262 15.664 120.814 15.472 120.494 15.088C120.206 14.672 120.062 14.16 120.062 13.552C120.062 12.752 120.222 12.064 120.542 11.488C120.894 10.912 121.71 10.256 122.99 9.52C125.678 7.984 128.83 6.784 132.446 5.92C136.062 5.056 139.758 4.624 143.534 4.624C149.326 4.624 153.646 5.6 156.494 7.552C159.342 9.504 160.766 12.08 160.766 15.28ZM165.067 46.24C163.627 46.24 162.443 45.584 161.515 44.272C160.619 42.928 160.171 41.264 160.171 39.28C160.171 36.88 160.331 34.688 160.651 32.704C160.971 30.688 161.499 28.56 162.235 26.32C162.555 25.36 163.003 24.672 163.579 24.256C164.155 23.84 165.067 23.632 166.315 23.632C167.019 23.632 167.499 23.744 167.755 23.968C168.043 24.192 168.187 24.528 168.187 24.976C168.187 25.232 168.011 26.096 167.659 27.568C167.339 28.752 167.083 29.824 166.891 30.784C166.251 34.144 165.931 36.384 165.931 37.504C165.931 38.176 166.011 38.656 166.171 38.944C166.331 39.2 166.587 39.328 166.939 39.328C167.419 39.328 168.011 38.848 168.715 37.888C169.451 36.928 170.219 35.472 171.019 33.52C171.851 31.568 172.651 29.168 173.419 26.32C173.675 25.36 174.059 24.672 174.571 24.256C175.115 23.84 175.915 23.632 176.971 23.632C177.707 23.632 178.219 23.728 178.507 23.92C178.795 24.08 178.939 24.4 178.939 24.88C178.939 25.68 178.539 27.872 177.739 31.456C176.843 35.552 176.395 38.08 176.395 39.04C176.395 39.648 176.523 40.128 176.779 40.48C177.035 40.8 177.371 40.96 177.787 40.96C178.427 40.96 179.179 40.576 180.043 39.808C180.939 39.008 182.123 37.728 183.595 35.968C183.979 35.52 184.411 35.296 184.891 35.296C185.307 35.296 185.627 35.488 185.851 35.872C186.107 36.256 186.235 36.784 186.235 37.456C186.235 38.736 185.931 39.728 185.323 40.432C183.947 42.128 182.459 43.52 180.859 44.608C179.291 45.696 177.499 46.24 175.483 46.24C173.947 46.24 172.811 45.648 172.075 44.464C171.371 43.28 171.019 41.616 171.019 39.472C170.475 41.648 169.659 43.328 168.571 44.512C167.483 45.664 166.315 46.24 165.067 46.24ZM205.358 35.296C205.774 35.296 206.094 35.488 206.318 35.872C206.574 36.256 206.702 36.784 206.702 37.456C206.702 38.64 206.398 39.632 205.79 40.432C204.286 42.384 202.414 43.92 200.174 45.04C197.966 46.16 195.47 46.72 192.686 46.72C190.51 46.72 188.622 46.4 187.022 45.76C185.422 45.088 184.19 44.192 183.326 43.072C182.494 41.92 182.078 40.64 182.078 39.232C182.078 37.12 182.926 35.248 184.622 33.616C186.318 31.984 188.75 30.416 191.918 28.912L184.046 29.104C183.342 29.136 182.798 28.896 182.414 28.384C182.062 27.84 181.886 27.2 181.886 26.464C181.886 25.696 182.062 25.024 182.414 24.448C182.798 23.84 183.31 23.536 183.95 23.536C185.422 23.536 187.39 23.648 189.854 23.872C190.366 23.904 191.294 23.968 192.638 24.064C194.014 24.16 195.166 24.208 196.094 24.208C196.414 24.208 197.022 24.08 197.918 23.824C198.078 23.792 198.382 23.712 198.83 23.584C199.31 23.456 199.71 23.392 200.03 23.392C200.542 23.392 200.958 23.616 201.278 24.064C201.63 24.512 201.806 25.2 201.806 26.128C201.806 27.152 201.566 27.952 201.086 28.528C200.606 29.104 199.854 29.616 198.83 30.064C195.918 31.312 193.502 32.656 191.582 34.096C189.662 35.504 188.702 36.912 188.702 38.32C188.702 39.216 189.118 39.952 189.95 40.528C190.782 41.104 192.014 41.392 193.646 41.392C195.438 41.392 197.246 40.944 199.07 40.048C200.926 39.152 202.59 37.792 204.062 35.968C204.446 35.52 204.878 35.296 205.358 35.296ZM217.743 40.768C218.447 40.736 218.975 40.992 219.327 41.536C219.711 42.048 219.903 42.688 219.903 43.456C219.903 44.256 219.711 44.96 219.327 45.568C218.975 46.176 218.479 46.48 217.839 46.48C216.687 46.48 215.599 46.464 214.575 46.432C213.583 46.4 212.703 46.368 211.935 46.336C208.991 46.208 206.911 46.144 205.695 46.144C205.279 46.144 204.671 46.288 203.871 46.576C202.847 46.896 202.143 47.056 201.759 47.056C200.063 47.056 199.215 45.968 199.215 43.792C199.215 42.32 199.743 40.656 200.799 38.8C201.855 36.912 203.231 35.088 204.927 33.328C206.623 31.568 208.383 30.096 210.207 28.912L203.439 29.104C202.735 29.136 202.191 28.896 201.807 28.384C201.455 27.84 201.279 27.2 201.279 26.464C201.279 25.696 201.455 25.024 201.807 24.448C202.191 23.84 202.703 23.536 203.343 23.536C204.751 23.536 206.495 23.648 208.575 23.872C208.927 23.904 209.679 23.968 210.831 24.064C212.015 24.16 213.103 24.208 214.095 24.208C214.415 24.208 215.023 24.08 215.919 23.824C216.079 23.792 216.383 23.712 216.831 23.584C217.311 23.456 217.711 23.392 218.031 23.392C218.543 23.392 218.959 23.616 219.279 24.064C219.631 24.512 219.807 25.2 219.807 26.128C219.807 27.152 219.551 27.968 219.039 28.576C218.559 29.184 217.823 29.728 216.831 30.208C215.711 30.72 214.399 31.6 212.895 32.848C211.391 34.096 209.967 35.488 208.623 37.024C207.279 38.528 206.287 39.952 205.647 41.296L217.743 40.768Z" fill="white"/>
</svg>
